<?xml version="1.0" encoding="utf-8"?>
<!-- Generator: Adobe Illustrator 19.0.0, SVG Export Plug-In . SVG Version: 6.00 Build 0)  -->
<svg version="1.1" id="OBJECTS" xmlns="http://www.w3.org/2000/svg" xmlns:xlink="http://www.w3.org/1999/xlink" x="0px" y="0px"
	 viewBox="0 0 498.8 107.9" style="enable-background:new 0 0 498.8 107.9;" xml:space="preserve">
<style type="text/css">
	.st0{fill:#FF8E0C;}
	.st1{fill:#FEE13D;}
	.st2{fill:url(#SVGID_1_);}
</style>
<path class="st0" d="M50,107.9h398.8c27.6,0,50-22.4,50-50v0c0-27.6-22.4-50-50-50H50c-27.6,0-50,22.4-50,50v0
	C0,85.5,22.4,107.9,50,107.9z"/>
<path class="st1" d="M50,100h398.8c27.6,0,50-22.4,50-50v0c0-27.6-22.4-50-50-50H50C22.4,0,0,22.4,0,50v0C0,77.6,22.4,100,50,100z"
	/>
<linearGradient id="SVGID_1_" gradientUnits="userSpaceOnUse" x1="-1.271565e-006" y1="54.1651" x2="498.825" y2="54.1651">
	<stop  offset="0" style="stop-color:#FF8E0C"/>
	<stop  offset="0.5" style="stop-color:#FEE13D"/>
	<stop  offset="1" style="stop-color:#FFAA1C"/>
</linearGradient>
<path class="st2" d="M50,104.2h398.8c27.6,0,50-22.4,50-50v0c0-27.6-22.4-50-50-50H50c-27.6,0-50,22.4-50,50v0
	C0,81.8,22.4,104.2,50,104.2z"/>
</svg>
