<svg height="512pt" viewBox="0 0 512 512" width="512pt" xmlns="http://www.w3.org/2000/svg"><path d="m512 256c0 141.386719-114.613281 256-256 256s-256-114.613281-256-256 114.613281-256 256-256 256 114.613281 256 256zm0 0" fill="#005fd6"/><path d="m512 256c0-16.035156-1.488281-31.722656-4.308594-46.9375l-110.71875-110.71875c-10.070312-10.492188-21.300781-19.863281-33.511718-27.902344-6.472657-4.261718-15.050782-3.390625-20.53125 2.089844l-169.003907 169.003906c-5.332031 5.332032-6.238281 13.65625-2.179687 20.011719 1.914062 3 3.921875 5.9375 6.003906 8.816406-.003906 0-.007812-.003906-.011719-.003906 0 0-4.96875 22.992187-20.324219 38.347656-15.355468 15.355469-24.828124 24.828125-33.648437 33.648438-8.824219 8.820312-27.746094 17.339843-33.625 23.21875-5.882813 5.882812-16.441406 17.539062-.011719 33.964843l105.210938 105.210938c19.449218 4.726562 39.757812 7.25 60.660156 7.25 141.386719 0 256-114.613281 256-256zm0 0" fill="#003d8d"/><path d="m363.460938 70.441406c-6.472657-4.261718-15.050782-3.390625-20.53125 2.089844l-169.003907 169.003906c-5.332031 5.332032-6.238281 13.65625-2.179687 20.011719 14.472656 22.664063 33.710937 41.902344 56.375 56.375 6.355468 4.058594 14.675781 3.152344 20.007812-2.179687l169.007813-169.007813c5.476562-5.476563 6.351562-14.054687 2.089843-20.527344-14.609374-22.183593-33.582031-41.15625-55.765624-55.765625zm0 0" fill="#ffec97"/><path d="m417.136719 146.734375-169.007813 169.003906c-2.664062 2.667969-6.078125 4.230469-9.617187 4.609375-3.542969.390625-7.210938-.394531-10.386719-2.421875-11.335938-7.234375-21.8125-15.664062-31.265625-25.117187l197.324219-197.328125c9.339844 9.34375 17.734375 19.628906 25.039062 30.726562 4.261719 6.46875 3.394532 15.046875-2.085937 20.527344zm0 0" fill="#ffcf00"/><path d="m180.960938 332.253906c15.355468-15.355468 38.347656-20.324218 38.347656-20.324218-8.453125-18.375-23.195313-33.121094-41.570313-41.570313 0 0-4.96875 22.992187-20.324219 38.34375-15.355468 15.355469-24.828124 24.832031-33.648437 33.652344-8.824219 8.820312-27.746094 17.339843-33.625 23.21875-5.882813 5.882812-16.441406 17.535156-.011719 33.964843 16.425782 16.429688 28.082032 5.871094 33.960938-.011718 5.882812-5.878906 14.398437-24.804688 23.222656-33.625 8.820312-8.820313 18.296875-18.292969 33.648438-33.648438zm0 0" fill="#ff8900"/><path d="m147.3125 365.902344c-8.820312 8.816406-17.339844 27.746094-23.222656 33.628906-5.875 5.875-17.527344 16.441406-33.960938.007812l112.117188-112.121093c7.042968 7.042969 12.835937 15.324219 17.054687 24.507812 0 0-22.988281 4.972657-38.335937 20.324219zm0 0" fill="#c06200"/><path d="m314.347656 101.113281 21.214844-21.210937 74.203125 74.203125-21.214844 21.210937zm0 0" fill="#ff0335"/><path d="m351.449219 138.214844 21.210937-21.214844 37.101563 37.101562-21.210938 21.214844zm0 0" fill="#c2001b"/><path d="m282.707031 132.757812 21.210938-21.214843 74.203125 74.203125-21.210938 21.214844zm0 0" fill="#ffb74f"/><path d="m319.804688 169.855469 21.214843-21.210938 37.101563 37.101563-21.214844 21.210937zm0 0" fill="#ff8900"/><path d="m430.300781 167.898438c-16.832031-16.835938-44.121093-16.835938-60.953125 0-16.832031 16.832031-16.832031 44.121093 0 60.953124 16.832032 16.835938 44.121094 16.835938 60.953125 0 16.835938-16.832031 16.835938-44.121093 0-60.953124zm0 0" fill="#fff"/><path d="m430.308594 228.847656c-16.835938 16.835938-44.128906 16.835938-60.960938.007813l60.960938-60.960938c16.828125 16.832031 16.828125 44.125 0 60.953125zm0 0" fill="#fff5cb"/></svg>