<svg height="512pt" viewBox="0 -2 512 512" width="512pt" xmlns="http://www.w3.org/2000/svg"><path d="m392 508h-272c-66.273438 0-120-53.726562-120-120h512c0 66.273438-53.726562 120-120 120zm0 0" fill="#4db6ac"/><path d="m416 392h-320c-2.207031 0-4-1.792969-4-4v-16c0-13.230469 10.769531-24 24-24h280c13.230469 0 24 10.769531 24 24v16c0 2.207031-1.792969 4-4 4zm-316-8h312v-12c0-8.824219-7.175781-16-16-16h-280c-8.824219 0-16 7.175781-16 16zm0 0" fill="#263238"/><path d="m376 356h-240c-2.207031 0-4-1.792969-4-4v-244.6875c0-3.160156 1.28125-6.25 3.511719-8.488281l43.3125-43.3125c2.238281-2.230469 5.335937-3.511719 8.488281-3.511719h137.375c3.160156 0 6.25 1.28125 8.488281 3.511719l43.3125 43.3125c2.230469 2.230469 3.511719 5.328125 3.511719 8.488281v244.6875c0 2.207031-1.792969 4-4 4zm-236-8h232v-240.6875c0-1.054688-.433594-2.089844-1.167969-2.832031l-43.3125-43.3125c-.742187-.734375-1.777343-1.167969-2.832031-1.167969h-137.375c-1.054688 0-2.089844.433594-2.832031 1.167969l-43.3125 43.3125c-.742188.742187-1.167969 1.777343-1.167969 2.832031zm0 0" fill="#263238"/><path d="m328 172c0 39.765625-32.234375 72-72 72s-72-32.234375-72-72 32.234375-72 72-72 72 32.234375 72 72zm0 0" fill="#ffd740"/><g fill="#263238"><path d="m256 248c-41.902344 0-76-34.097656-76-76s34.097656-76 76-76 76 34.097656 76 76-34.097656 76-76 76zm0-144c-37.496094 0-68 30.503906-68 68s30.503906 68 68 68 68-30.503906 68-68-30.503906-68-68-68zm0 0"/><path d="m272 176c-1.023438 0-2.046875-.390625-2.832031-1.167969-1.558594-1.558593-1.558594-4.097656 0-5.65625l24-24c1.558593-1.558593 4.097656-1.558593 5.65625 0 1.558593 1.558594 1.558593 4.097657 0 5.65625l-24 24c-.777344.777344-1.800781 1.167969-2.824219 1.167969zm0 0"/><path d="m296 176c-1.023438 0-2.046875-.390625-2.832031-1.167969l-24-24c-1.558594-1.558593-1.558594-4.097656 0-5.65625 1.558593-1.558593 4.097656-1.558593 5.65625 0l24 24c1.558593 1.558594 1.558593 4.097657 0 5.65625-.777344.777344-1.800781 1.167969-2.824219 1.167969zm0 0"/><path d="m216 176c-1.023438 0-2.046875-.390625-2.832031-1.167969-1.558594-1.558593-1.558594-4.097656 0-5.65625l24-24c1.558593-1.558593 4.097656-1.558593 5.65625 0 1.558593 1.558594 1.558593 4.097657 0 5.65625l-24 24c-.777344.777344-1.800781 1.167969-2.824219 1.167969zm0 0"/><path d="m240 176c-1.023438 0-2.046875-.390625-2.832031-1.167969l-24-24c-1.558594-1.558593-1.558594-4.097656 0-5.65625 1.558593-1.558593 4.097656-1.558593 5.65625 0l24 24c1.558593 1.558594 1.558593 4.097657 0 5.65625-.777344.777344-1.800781 1.167969-2.824219 1.167969zm0 0"/><path d="m288 204h-64c-2.207031 0-4-1.792969-4-4s1.792969-4 4-4h64c2.207031 0 4 1.792969 4 4s-1.792969 4-4 4zm0 0"/><path d="m296 336h-80c-2.207031 0-4-1.792969-4-4s1.792969-4 4-4h80c2.207031 0 4 1.792969 4 4s-1.792969 4-4 4zm0 0"/><path d="m476 244h-72c-2.207031 0-4-1.792969-4-4s1.792969-4 4-4h72c2.207031 0 4 1.792969 4 4s-1.792969 4-4 4zm0 0"/><path d="m508 244h-16c-2.207031 0-4-1.792969-4-4s1.792969-4 4-4h16c2.207031 0 4 1.792969 4 4s-1.792969 4-4 4zm0 0"/><path d="m108 244h-72c-2.207031 0-4-1.792969-4-4s1.792969-4 4-4h72c2.207031 0 4 1.792969 4 4s-1.792969 4-4 4zm0 0"/><path d="m20 244h-16c-2.207031 0-4-1.792969-4-4s1.792969-4 4-4h16c2.207031 0 4 1.792969 4 4s-1.792969 4-4 4zm0 0"/><path d="m312.007812 312h-112c-2.207031 0-4-1.792969-4-4v-32c0-2.207031 1.792969-4 4-4h112c2.207032 0 4 1.792969 4 4v32c0 2.207031-1.792968 4-4 4zm-108-8h104v-24h-104zm0 0"/><path d="m168 24h-32c-2.207031 0-4-1.792969-4-4s1.792969-4 4-4h32c2.207031 0 4 1.792969 4 4s-1.792969 4-4 4zm0 0"/><path d="m152 40c-2.207031 0-4-1.792969-4-4v-32c0-2.207031 1.792969-4 4-4s4 1.792969 4 4v32c0 2.207031-1.792969 4-4 4zm0 0"/><path d="m120 72h-32c-2.207031 0-4-1.792969-4-4s1.792969-4 4-4h32c2.207031 0 4 1.792969 4 4s-1.792969 4-4 4zm0 0"/><path d="m104 88c-2.207031 0-4-1.792969-4-4v-32c0-2.207031 1.792969-4 4-4s4 1.792969 4 4v32c0 2.207031-1.792969 4-4 4zm0 0"/></g></svg>