<svg id="Capa_1" enable-background="new 0 0 512 512" height="512" viewBox="0 0 512 512" width="512" xmlns="http://www.w3.org/2000/svg"><g><path d="m241.365 444.262c-7.914 0-15.815-3.103-21.7-9.264l-211.358-221.279c-5.535-5.793-8.482-13.396-8.299-21.408s3.477-15.472 9.271-21.007l140.288-133.997c5.794-5.535 13.38-8.489 21.409-8.299 8.012.184 15.473 3.477 21.007 9.272l211.356 221.277c11.425 11.961 10.989 30.988-.972 42.414 0 .001 0 .001-.001.001l-140.288 133.998c-5.799 5.54-13.263 8.292-20.713 8.292z" fill="#9c9ade"/><path d="m489.722 90.459-185.139-47.686c-7.647-1.973-15.593-.798-22.372 3.302s-11.58 10.636-12.973 17.906l-74.054 296.612c-4.548 16.531 5.038 32.883 20.824 36.95l185.139 47.687c2.424.624 4.877.933 7.313.933 5.252 0 10.428-1.435 15.058-4.235 6.778-4.1 11.58-10.635 13.52-18.402l74.053-296.612c4.003-16.036-5.584-32.39-21.369-36.455z" fill="#7773d2"/><path d="m353 117.001h-194c-16.542 0-30 13.458-30 30v306c0 16.542 13.458 30 30 30h194c16.542 0 30-13.458 30-30v-306c0-16.542-13.458-30-30-30z" fill="#fbf4f4"/><path d="m353 117.001h-97v366h97c16.542 0 30-13.458 30-30v-306c0-16.542-13.458-30-30-30z" fill="#e2e9ee"/><path d="m256 253.941c-7.2-6.47-16.46-10.33-26.59-10.33-6.68 0-13.18 1.66-19.34 4.94-12.67 6.76-21.47 20.02-23.54 35.47-2.18 16.25 3.22 32.28 14.44 42.87.1.1.2.19.3.28l44.73 40.01c2.85 2.55 6.42 3.82 10 3.82 0 0 31.98-54.17 31.98-76.3 0-22.131-31.98-40.76-31.98-40.76z" fill="#ff4154"/><circle cx="200" cy="188.002" fill="#ff6358" r="14.999"/><g fill="#ea1337"><circle cx="312" cy="411.998" r="15"/><path d="m266.001 367.18 44.729-40.012c.101-.09.199-.181.298-.273 11.223-10.598 16.621-26.625 14.442-42.872-2.072-15.453-10.873-28.715-23.556-35.482-6.144-3.271-12.645-4.93-19.323-4.93-10.132 0-19.393 3.86-26.591 10.327v117.062c3.577.001 7.154-1.273 10.001-3.82z"/></g></g></svg>