<?xml version="1.0" encoding="iso-8859-1"?>
<!-- Generator: Adobe Illustrator 19.0.0, SVG Export Plug-In . SVG Version: 6.00 Build 0)  -->
<svg version="1.1" id="Capa_1" xmlns="http://www.w3.org/2000/svg" xmlns:xlink="http://www.w3.org/1999/xlink" x="0px" y="0px"
	 viewBox="0 0 512 512" style="enable-background:new 0 0 512 512;" xml:space="preserve">
<path style="fill:#FED130;" d="M210.291,277.576h91.573C263.932,229.475,267.89,160.15,267.89,160.15h-11.813h-11.813
	C244.265,160.15,248.223,229.475,210.291,277.576z"/>
<path style="fill:#F7BC14;" d="M267.891,160.15h-11.813h-11.813c0,0,0.759,13.313-1.579,32.319
	c-3.608,29.322,3.944,59.12,21.674,82.752c0.593,0.79,1.196,1.575,1.811,2.354h35.694
	C263.932,229.475,267.891,160.15,267.891,160.15z"/>
<path style="fill:#FFB125;" d="M321.653,298.56H191.027c-2.347,0-3.976-2.34-3.16-4.541l13.051-35.229
	c0.49-1.322,1.75-2.199,3.16-2.199h104.524c1.41,0,2.67,0.877,3.16,2.199l13.051,35.229
	C325.629,296.221,324.001,298.56,321.653,298.56z"/>
<path style="fill:#FF901D;" d="M324.813,294.02l-13.051-35.229c-0.49-1.322-1.75-2.199-3.16-2.199h-34.079l15.548,41.97h31.582
	C324.001,298.56,325.629,296.221,324.813,294.02z"/>
<path style="fill:#61AFF6;" d="M258.727,1.619l29.969,75.535c0.366,0.922,1.231,1.55,2.22,1.613l81.099,5.161
	c2.317,0.147,3.261,3.052,1.473,4.533l-62.577,51.844c-0.764,0.633-1.094,1.649-0.848,2.61l20.153,78.724
	c0.576,2.249-1.895,4.044-3.856,2.802l-68.644-43.494c-0.838-0.531-1.907-0.531-2.745,0l-68.644,43.494
	c-1.961,1.243-4.432-0.553-3.856-2.802l20.153-78.724c0.246-0.961-0.084-1.978-0.848-2.61l-62.577-51.844
	c-1.788-1.481-0.844-4.386,1.473-4.533l81.099-5.161c0.99-0.063,1.855-0.691,2.22-1.613L253.96,1.619
	C254.816-0.539,257.871-0.539,258.727,1.619z"/>
<path style="fill:#FF4C4C;" d="M258.727,1.619l29.969,75.535c0.366,0.922,1.231,1.55,2.22,1.613l81.099,5.161
	c2.317,0.147,3.261,3.052,1.473,4.533l-62.577,51.844c-0.764,0.633-1.094,1.649-0.848,2.61l20.153,78.724
	c0.576,2.249-1.895,4.044-3.856,2.802l-68.644-43.494c-0.838-0.531-1.907-0.531-2.745,0l-68.644,43.494
	c-1.961,1.243-4.432-0.553-3.856-2.802l20.153-78.724c0.246-0.961-0.084-1.978-0.848-2.61l-62.577-51.844
	c-1.788-1.481-0.844-4.386,1.473-4.533l81.099-5.161c0.99-0.063,1.855-0.691,2.22-1.613L253.96,1.619
	C254.816-0.539,257.871-0.539,258.727,1.619z"/>
<g>
	<path style="fill:#EA2828;" d="M246.135,67.364c2.583,6.511,8.83,10.827,15.833,10.941l28.486,0.463l-0.042-0.105
		c-0.769-0.21-1.415-0.749-1.716-1.508L258.727,1.618c-0.856-2.158-3.91-2.158-4.767,0l-16.955,42.735L246.135,67.364z"/>
	<path style="fill:#EA2828;" d="M372.016,83.929l-37.231-2.369l-64.383,53.34l16.527,64.558l39.432,24.985
		c1.961,1.243,4.432-0.553,3.856-2.802l-20.153-78.724c-0.246-0.961,0.084-1.978,0.848-2.61l62.577-51.844
		C375.276,86.981,374.332,84.076,372.016,83.929z"/>
</g>
<path style="fill:#B9BBC1;" d="M505.367,341.542H341.229v-42.753c0-3.491-2.83-6.321-6.32-6.321H177.091
	c-3.491,0-6.321,2.83-6.321,6.321v42.753H6.633c-3.491,0-6.32,2.83-6.32,6.321V505.68c0,3.491,2.83,6.32,6.32,6.32h164.138h170.458
	h164.138c3.491,0,6.321-2.83,6.321-6.32V347.862C511.687,344.371,508.858,341.542,505.367,341.542z"/>
<g>
	<path style="fill:#A0A3AA;" d="M505.367,341.542h-31.426V512l0,0h31.426c3.491,0,6.321-2.83,6.321-6.32V347.862
		C511.687,344.371,508.858,341.542,505.367,341.542z"/>
	<polygon style="fill:#A0A3AA;" points="170.771,341.542 133.024,341.542 133.024,512 133.024,512 170.771,512 	"/>
</g>
<path style="fill:#B9BBC1;" d="M341.229,512H170.771V298.788c0-3.491,2.83-6.32,6.32-6.32h157.817c3.491,0,6.32,2.83,6.32,6.32
	L341.229,512L341.229,512z"/>
<path style="fill:#A0A3AA;" d="M334.909,292.468h-30.104V512h36.424V298.788C341.229,295.298,338.399,292.468,334.909,292.468z"/>
<path style="fill:#FED130;" d="M83.016,484.852c-32.025,0-58.08-26.055-58.08-58.08c0-32.026,26.055-58.081,58.08-58.081h0.856
	c32.025,0,58.08,26.055,58.08,58.081c0,32.025-26.055,58.08-58.08,58.08H83.016z"/>
<path style="fill:#F7BC14;" d="M83.872,368.69h-0.856c-5.509,0-10.834,0.787-15.888,2.227c23.125,8.029,39.774,30.03,39.774,55.854
	s-16.649,47.824-39.773,55.853c5.053,1.44,10.379,2.227,15.887,2.227h0.856c32.025,0,58.08-26.055,58.08-58.08
	C141.952,394.745,115.897,368.69,83.872,368.69z"/>
<path style="fill:#FED130;" d="M256.509,460.315c-32.026,0-58.081-26.055-58.081-58.081c0-32.025,26.055-58.08,58.081-58.08h0.855
	c32.025,0,58.08,26.055,58.08,58.08c0,32.026-26.055,58.081-58.08,58.081H256.509z"/>
<path style="fill:#F7BC14;" d="M257.364,344.154h-0.855c-5.58,0-10.973,0.807-16.084,2.283
	c23.047,8.072,39.626,30.029,39.626,55.797s-16.579,47.726-39.626,55.798c5.112,1.476,10.504,2.283,16.085,2.283h0.855
	c32.025,0,58.08-26.055,58.08-58.081C315.444,370.208,289.39,344.154,257.364,344.154z"/>
<path style="fill:#FED130;" d="M428.128,484.852c-32.025,0-58.08-26.055-58.08-58.08c0-32.026,26.055-58.081,58.08-58.081h0.856
	c32.025,0,58.08,26.055,58.08,58.081c0,32.025-26.055,58.08-58.08,58.08H428.128z"/>
<path style="fill:#F7BC14;" d="M428.984,368.69h-0.856c-5.562,0-10.938,0.802-16.035,2.269c23.067,8.061,39.663,30.03,39.663,55.812
	s-16.597,47.75-39.663,55.811c5.097,1.467,10.472,2.269,16.035,2.269h0.856c32.025,0,58.08-26.055,58.08-58.08
	C487.064,394.745,461.009,368.69,428.984,368.69z"/>
<g>
	<path style="fill:#2C5871;" d="M429.104,459.344c11.692,0,21.258-5.403,21.258-19.664v-1.683c0-7.352-3.809-11.338-9.035-13.375
		c4.34-2.037,6.909-7.706,6.909-14.703c0-11.781-7.972-15.855-18.689-15.855c-14.969,0-19.398,9.123-19.398,15.412
		c0,3.72,0.797,4.961,5.935,4.961c4.251,0,5.492-1.772,5.492-4.429c0-3.543,2.126-5.935,7.883-5.935
		c4.783,0,7.794,1.949,7.794,7.795c0,7.617-3.72,8.68-8.149,8.68c-2.569,0-3.455,2.303-3.455,4.518c0,2.303,0.886,4.517,3.455,4.517
		c5.669,0,9.743,1.86,9.743,8.415v1.683c0,6.731-2.834,9.566-9.478,9.566c-5.669,0-9.212-2.48-9.212-6.466
		c0-2.834-1.24-4.075-5.935-4.075c-3.986,0-5.492,0.975-5.492,4.517C408.732,450.398,414.577,459.344,429.104,459.344z"/>
	<path style="fill:#2C5871;" d="M68.386,459.078h31.533c1.949,0,3.632-2.48,3.632-5.137c0-2.657-1.683-4.96-3.632-4.96H75.295
		v-2.126c0-9.211,28.078-15.412,28.078-34.544c0-11.249-9.566-17.981-19.841-17.981c-9.832,0-19.043,6.2-19.043,16.298
		c0,4.783,2.214,6.2,5.226,6.2c3.809,0,6.023-2.126,6.023-4.252c0-5.492,3.543-7.794,7.883-7.794c5.846,0,8.237,4.252,8.237,7.883
		c0,12.489-28.521,20.018-28.521,34.19v8.592C63.338,457.661,66.349,459.078,68.386,459.078z"/>
	<path style="fill:#2C5871;" d="M258.298,367.076c-0.974,0-1.772,0.354-2.392,0.886l-10.452,7.972
		c-1.417,0.885-2.214,2.569-2.214,4.163c0,2.303,1.506,4.606,3.72,4.606c0.62,0,1.417-0.177,2.126-0.797l2.834-2.834v47.299
		c0,2.391,2.834,3.632,5.757,3.632c2.834,0,5.757-1.24,5.757-3.632v-57.573C263.435,368.493,260.689,367.076,258.298,367.076z"/>
</g>
<g>
</g>
<g>
</g>
<g>
</g>
<g>
</g>
<g>
</g>
<g>
</g>
<g>
</g>
<g>
</g>
<g>
</g>
<g>
</g>
<g>
</g>
<g>
</g>
<g>
</g>
<g>
</g>
<g>
</g>
</svg>
