<svg height="512pt" viewBox="-48 0 512 512" width="512pt" xmlns="http://www.w3.org/2000/svg"><path d="m183.582031 37.59375h48.949219v93.277344h-48.949219zm0 0" fill="#c2e5e6"/><path d="m207.820312 37.59375h24.710938v93.277344h-24.710938zm0 0" fill="#98d5d2"/><path d="m63.785156 114.898438c-10.148437-10.148438-26.597656-10.148438-36.746094 0l-.191406.191406c-10.148437 10.148437-10.148437 26.601562 0 36.75l54.488282 54.488281 36.941406-36.9375zm0 0" fill="#ff6f44"/><path d="m388.789062 111.804688-.1875-.1875c-10.148437-10.148438-26.601562-10.148438-36.75 0l-54.488281 54.488281 36.9375 36.9375 54.488281-54.488281c10.148438-10.148438 10.148438-26.601563 0-36.75zm0 0" fill="#ff451b"/><path d="m270.078125 20.058594v12.414062c0 11.074219-8.988281 20.0625-20.0625 20.0625h-84.394531c-11.074219 0-20.058594-8.988281-20.058594-20.0625v-12.414062c0-11.074219 8.984375-20.058594 20.058594-20.058594h84.394531c11.074219 0 20.0625 8.984375 20.0625 20.058594zm0 0" fill="#2e77a6"/><path d="m270.078125 20.058594v12.414062c0 11.074219-8.988281 20.0625-20.0625 20.0625h-42.195313v-52.535156h42.195313c11.074219 0 20.0625 8.984375 20.0625 20.058594zm0 0" fill="#1e608e"/><path d="m415.636719 304.171875c0 114.78125-93.035157 207.828125-207.816407 207.828125s-207.820312-93.046875-207.820312-207.828125c0-114.773437 93.039062-207.820313 207.820312-207.820313s207.816407 93.046876 207.816407 207.820313zm0 0" fill="#2e77a6"/><path d="m415.636719 304.171875c0 114.78125-93.035157 207.828125-207.816407 207.828125v-415.648438c114.78125 0 207.816407 93.046876 207.816407 207.820313zm0 0" fill="#1e608e"/><path d="m363.582031 304.171875c0 86.035156-69.746093 155.761719-155.761719 155.761719-86.015624 0-155.765624-69.726563-155.765624-155.761719 0-86.015625 69.75-155.765625 155.765624-155.765625 86.015626 0 155.761719 69.75 155.761719 155.765625zm0 0" fill="#fff"/><path d="m363.582031 304.171875c0 86.035156-69.746093 155.761719-155.761719 155.761719v-311.527344c86.015626 0 155.761719 69.75 155.761719 155.765625zm0 0" fill="#c2e5e6"/><path d="m363.578125 304.171875h-155.757813v-155.761719c86.019532 0 155.757813 69.738282 155.757813 155.761719zm0 0" fill="#ff451b"/><path d="m242.515625 304.171875c0 19.164063-15.539063 34.695313-34.695313 34.695313s-34.699218-15.53125-34.699218-34.695313c0-19.15625 15.542968-34.699219 34.699218-34.699219s34.695313 15.542969 34.695313 34.699219zm0 0" fill="#2e77a6"/><path d="m242.515625 304.171875c0 19.164063-15.539063 34.695313-34.695313 34.695313v-69.394532c19.15625 0 34.695313 15.542969 34.695313 34.699219zm0 0" fill="#1e608e"/></svg>