<?xml version="1.0" encoding="utf-8"?>
<!-- Generator: Adobe Illustrator 19.0.0, SVG Export Plug-In . SVG Version: 6.00 Build 0)  -->
<svg version="1.1" id="Layer_1" xmlns="http://www.w3.org/2000/svg" xmlns:xlink="http://www.w3.org/1999/xlink" x="0px" y="0px"
	 viewBox="0 0 128.6 25.2" style="enable-background:new 0 0 128.6 25.2;" xml:space="preserve">
<style type="text/css">
	.st0{fill:#FFD15D;}
	.st1{fill:#F0AA57;}
	.st2{fill:#010101;}
</style>
<g id="XMLID_42_">
	<g id="XMLID_50_">
		<g id="XMLID_53_">
			<path id="XMLID_54_" class="st0" d="M126.4,6.1c-7.7,1.4-15.5,2.5-23.3,3.4c0.2,2.6,0.5,5.3,0.7,7.9c0.2,2.6,0.5,5.3,0.7,7.9
				c8-0.9,16.1-2.1,24.1-3.5c-2.9-2.2-5.8-4.3-8.6-6.6C122.1,12.2,124.3,9.1,126.4,6.1z"/>
		</g>
		<g id="XMLID_51_">
			<path id="XMLID_52_" class="st1" d="M117.4,15.4c-4.2,3.4-8.5,6.7-12.9,9.9c-0.3-3.2-0.6-6.5-0.8-9.7
				C108.2,15.6,112.8,15.5,117.4,15.4z"/>
		</g>
	</g>
	<g id="XMLID_45_">
		<g id="XMLID_48_">
			<path id="XMLID_49_" class="st0" d="M2.2,6.1c7.7,1.4,15.5,2.5,23.3,3.4c-0.2,2.6-0.5,5.3-0.7,7.9c-0.2,2.6-0.5,5.3-0.7,7.9
				C16,24.4,8,23.2,0,21.8c2.9-2.2,5.8-4.3,8.6-6.6C6.4,12.2,4.3,9.1,2.2,6.1z"/>
		</g>
		<g id="XMLID_46_">
			<path id="XMLID_47_" class="st1" d="M11.1,15.4c4.2,3.4,8.5,6.7,12.9,9.9c0.3-3.2,0.6-6.5,0.8-9.7C20.3,15.6,15.7,15.5,11.1,15.4
				z"/>
		</g>
	</g>
	<g id="XMLID_43_">
		<path id="XMLID_44_" class="st0" d="M115.6,0.1c0.6,5.2,1.2,10.3,1.8,15.5c-35.3,5.3-71,5.3-106.3,0c0.6-5.2,1.2-10.3,1.8-15.5
			C47,5.2,81.5,5.2,115.6,0.1z"/>
	</g>
</g>
<g id="XMLID_3_">
	<g id="XMLID_10_">
		<path id="XMLID_41_" class="st2" d="M48.6,7.4c-1.3,3.3-2,5-3.4,8.2c-0.6,0-0.9,0-1.5-0.1c-1-3.4-1.5-5.1-2.5-8.6
			c0.6,0,1,0.1,1.6,0.1c0.7,2.5,1,3.8,1.7,6.3c1-2.4,1.5-3.6,2.4-6C47.6,7.3,48,7.4,48.6,7.4z"/>
		<path id="XMLID_39_" class="st2" d="M49.9,7.4c0.6,0,0.9,0,1.5,0.1c-0.1,3.4-0.2,5-0.3,8.4c-0.6,0-0.9,0-1.5-0.1
			C49.7,12.5,49.7,10.8,49.9,7.4z"/>
		<path id="XMLID_37_" class="st2" d="M59.4,8.6c0,0.6,0,0.9,0,1.5c-0.6,0-0.9,0-1.5,0c0-0.3,0-0.4,0-0.7c0-0.1-0.1-0.2-0.2-0.2
			c-1.1,0-1.6,0-2.6-0.1c-0.1,0-0.2,0.1-0.2,0.2c-0.1,2-0.1,3-0.1,5c0,0.1,0.1,0.2,0.2,0.2c1.1,0,1.6,0,2.7,0.1
			c0.1,0,0.2-0.1,0.2-0.2c0-0.3,0-0.4,0-0.7c0.6,0,0.9,0,1.5,0c0,0.6,0,0.9,0,1.5c0,0.5-0.5,0.9-1,0.9c-1.7,0-2.5-0.1-4.2-0.1
			c-0.6,0-1-0.5-1-1c0.1-2.6,0.1-3.9,0.2-6.5c0-0.5,0.5-0.9,1-0.9c1.7,0,2.5,0.1,4.1,0.1C58.9,7.7,59.4,8.1,59.4,8.6z"/>
		<path id="XMLID_35_" class="st2" d="M66.6,9.2c-0.9,0-1.4,0-2.3,0c0,2.8,0,4.1,0,6.9c-0.6,0-0.9,0-1.5,0c0-2.8,0-4.1,0.1-6.9
			c-0.9,0-1.4,0-2.3,0c0-0.6,0-0.9,0-1.5c2.4,0,3.7,0,6.1,0C66.6,8.4,66.6,8.7,66.6,9.2z"/>
		<path id="XMLID_32_" class="st2" d="M74.1,8.6c0.1,2.6,0.1,3.9,0.1,6.5c0,0.5-0.4,0.9-1,0.9c-1.7,0-2.5,0-4.2,0.1
			c-0.6,0-1-0.4-1-0.9c0-2.6,0-3.9,0-6.5c0-0.5,0.5-0.9,1-0.9c1.7,0,2.5,0,4.1-0.1C73.6,7.7,74,8.1,74.1,8.6z M72.3,9.2
			c-1.1,0-1.6,0-2.6,0c-0.1,0-0.2,0.1-0.2,0.2c0,2,0,3,0,5c0,0.1,0.1,0.2,0.2,0.2c1.1,0,1.6,0,2.7,0c0.1,0,0.2-0.1,0.2-0.2
			c0-2-0.1-3-0.1-5C72.6,9.3,72.4,9.2,72.3,9.2z"/>
		<path id="XMLID_29_" class="st2" d="M82.1,8.3c0,1.1,0.1,1.6,0.1,2.7c0,0.4-0.2,0.7-0.6,0.8c0.4,0.1,0.6,0.4,0.6,0.8
			c0.1,1.3,0.1,1.9,0.1,3.2c-0.6,0-0.9,0-1.5,0.1c0-1.2-0.1-1.8-0.1-3c0-0.2-0.1-0.2-0.3-0.2c-1.2,0-1.7,0.1-2.9,0.1
			c0,1.3,0.1,1.9,0.1,3.2c-0.6,0-0.9,0-1.5,0c-0.1-3.4-0.1-5-0.2-8.4C78,7.6,79,7.5,81,7.5C81.6,7.4,82,7.8,82.1,8.3z M80.3,9
			c-1.1,0-1.7,0.1-2.9,0.1c0,0.9,0,1.3,0.1,2.2c1.2,0,1.7-0.1,2.9-0.1c0.2,0,0.2-0.1,0.2-0.2c0-0.7,0-1-0.1-1.7
			C80.6,9.1,80.5,9,80.3,9z"/>
		<path id="XMLID_27_" class="st2" d="M87.9,12.9c0.1,1.1,0.1,1.6,0.1,2.6c-0.6,0-0.9,0.1-1.5,0.1c-0.1-1.1-0.1-1.6-0.1-2.6
			c-1.3-2.2-1.9-3.4-3.1-5.6c0.7,0,1,0,1.7-0.1c0.8,1.5,1.2,2.3,2.1,3.9c0.7-1.6,1-2.4,1.6-4.1c0.7,0,1-0.1,1.7-0.1
			C89.4,9.4,88.9,10.5,87.9,12.9z"/>
	</g>
</g>
</svg>
