<svg id="Layer_1" enable-background="new 0 0 512.005 512.005" height="128" viewBox="0 0 512.005 512.005" width="128" xmlns="http://www.w3.org/2000/svg">
    <g>
        <path d="m132.289 230.546v94.974h47.533v-106.228c-14.654 2.216-30.413 5.849-47.533 11.254z" />
        <path
            d="m10.334 491.569c12.822 0 25.531 2.392 37.475 7.053l22.18 8.655c8.008 3.125 16.528 4.728 25.123 4.728h113.01c9.548 0 17.288-7.74 17.288-17.288v-117.927c0-9.548-7.74-17.288-17.288-17.288h-93.355c-9.384 0-16.991-7.607-16.991-16.991v-38.932c-15.113 1.457-29.2 8.611-39.311 20.127-13.307 15.156-31.011 25.49-50.37 29.76-4.676 1.032-7.994 5.19-7.994 9.978v117.891c0 5.652 4.582 10.234 10.233 10.234z" />
        <path
            d="m409.082 222.268c44.056 0 75.112-6.659 93.397-13.135 5.66-2.005 9.426-7.372 9.426-13.377v-151.428c0-9.269-8.723-16.007-17.715-13.759-20.265 5.067-48.13 9.201-85.108 9.201-32.963 0-60.854-9.248-90.38-19.038-47.88-15.877-97.264-32.246-176.696-9.591-6.078 1.733-10.248 7.321-10.248 13.641v170.423c31.984-9.218 59.81-12.778 84.649-12.778 45.05 0 80.314 11.694 112.99 22.529 26.849 8.903 52.208 17.312 79.685 17.312z" />
    </g>
</svg>